<?xml version="1.0" encoding="UTF-8"?>
<svg id="_Слой_2" data-name="Слой 2" xmlns="http://www.w3.org/2000/svg" viewBox="0 0 395.08 423.75">
  <defs>
    <style>
      .cls-1 {
        fill: #5b6c57;
      }

      .cls-2 {
        fill: #7d9e46;
      }
    </style>
  </defs>
  <path class="cls-2" d="M217.66,141.77c-11.94,15.91-11.92,37.02-11.62,43.23,.05,.97,.93,1.64,1.86,1.43,6-1.37,26.06-7,38-22.9,11.94-15.91,11.92-37.02,11.62-43.23-.05-.97-.93-1.64-1.86-1.43-6,1.37-26.06,7-38,22.9Z"/>
  <path class="cls-2" d="M210.45,247.38h-.04c-.06-15.44-2.79-45.83-21.06-70.18-25.08-33.41-68.83-41.29-70.68-41.61l-6.83-1.18c-3.61-.62-6.99,1.98-7.37,5.68l-.71,6.98c-.19,1.89-4.4,46.71,20.68,80.13,16.3,21.73,40.5,32.65,55.95,37.73,2.63,.86,4.41,3.32,4.41,6.11v71.84c0,3.55-2.84,6.42-6.34,6.42H31.98c-3.5,0-6.34-2.87-6.34-6.42V148.15c0-2.25,1.16-4.34,3.07-5.5L185.51,46.97c3.97-2.42,4.11-8.21,.26-10.83l-11.89-8.09c-2.04-1.39-4.69-1.46-6.8-.17L3.07,127.96c-1.9,1.16-3.07,3.25-3.07,5.5v235.39c0,3.55,2.84,6.42,6.34,6.42H204.11c3.5,0,6.34-2.87,6.34-6.42v-121.48Zm-65.59-35.9c-8.05-10.72-12.07-23.48-14.03-34.61-.9-5.11,4.33-9.14,8.95-6.89,10.06,4.89,21.12,12.23,29.17,22.95,8.06,10.74,12.08,23.53,14.04,34.68,.9,5.11-4.33,9.13-8.95,6.89-10.03-4.88-21.08-12.22-29.18-23.02Z"/>
  <path class="cls-1" d="M220.1,1.38c-2.88-1.82-6.52-1.84-9.43-.07l-18.01,10.99c-.13,.22-.29,.59-.3,1.05,0,1.27,1.23,2,1.3,2.05,57.17,36,114.34,71.99,171.52,107.99,2.65,1.67,4.27,4.61,4.27,7.77V388.61c0,5.06-4.04,9.15-9.03,9.15H86.48c-4.99,0-9.03,4.1-9.03,9.15v7.67c0,5.06,4.05,9.15,9.03,9.15H386.05c4.99,0,9.03-4.1,9.03-9.15V116.72c0-3.16-1.61-6.1-4.26-7.77L220.1,1.38Z"/>
  <path class="cls-2" d="M121.37,160.58c-6.5,5.98-1.67,21.04,1.58,31.14,7.31,22.78,25.72,46.93,51.23,51.91,6.01,1.17,13.47,2.63,18.13-1.6,9.47-8.6,1.56-35.51-11.03-52.7-17.36-23.68-50.12-37.76-59.9-28.75Z"/>
</svg>